<svg data-v-423bf9ae="" xmlns="http://www.w3.org/2000/svg" viewBox="0 0 413 107" class="iconLeftSlogan"><g data-v-423bf9ae="" id="1d9a8c91-1653-4fb7-9c40-701c5a7367fa" fill="#FFFFFF" transform="matrix(4.70957612991333,0,0,4.70957612991333,98.15907287597656,-3.2967019081115723)"><path d="M0.87 13.44L2.74 13.44L2.74 10.56C2.74 10.56 3.39 10.67 3.91 10.67C6.05 10.67 7.08 9.93 7.08 6.94C7.08 4.34 6.17 3.33 4.33 3.33C3.64 3.33 2.73 3.88 2.73 3.88L2.73 3.50L0.87 3.50ZM3.96 5.01C4.70 5.01 5.18 5.53 5.18 6.94C5.18 8.43 4.89 9.04 3.77 9.04C3.37 9.04 2.74 8.96 2.74 8.96L2.74 5.29C2.74 5.29 3.39 5.01 3.96 5.01ZM8.48 10.50L10.36 10.50L10.36 5.81C10.36 5.81 11.35 5.46 12.59 5.22L12.59 3.33C11.52 3.54 10.35 4.24 10.35 4.24L10.35 3.50L8.48 3.50ZM13.69 10.50L15.57 10.50L15.57 3.50L13.69 3.50ZM13.69 2.60L15.57 2.60L15.57 0.70L13.69 0.70ZM22.36 3.70C22.36 3.70 20.65 3.35 19.64 3.35C18.17 3.35 16.94 4.00 16.94 5.63C16.94 7.17 17.74 7.53 19.25 7.78C20.54 7.99 20.69 8.13 20.69 8.44C20.69 8.81 20.45 8.99 19.56 8.99C18.84 8.99 17.11 8.76 17.11 8.76L17.05 10.33C17.05 10.33 18.70 10.67 19.74 10.67C21.49 10.67 22.55 10.04 22.55 8.40C22.55 6.99 21.98 6.51 20.36 6.22C19.07 5.98 18.80 5.91 18.80 5.59C18.80 5.21 18.97 5.03 19.78 5.03C20.59 5.03 22.33 5.25 22.33 5.25ZM25.79 10.50L25.79 5.26C25.79 5.26 26.42 5.01 27.03 5.01C27.90 5.01 28.01 5.64 28.01 6.90L28.01 10.50L29.89 10.50L29.89 6.87C29.89 6.33 29.83 5.28 29.83 5.28C29.83 5.28 30.58 5.01 31.14 5.01C31.98 5.01 32.12 5.70 32.12 6.76L32.12 10.50L33.99 10.50L33.99 6.71C33.99 4.45 33.43 3.33 31.53 3.33C30.46 3.33 29.18 3.99 29.18 3.99C28.76 3.54 28.21 3.33 27.43 3.33C26.74 3.33 25.77 3.89 25.77 3.89L25.77 3.50L23.91 3.50L23.91 10.50ZM41.61 0.70L39.73 0.70L39.73 3.53C39.73 3.53 38.74 3.33 38.22 3.33C36.32 3.33 35.32 4.41 35.32 6.97C35.32 9.44 35.94 10.67 38.05 10.67C38.77 10.67 39.75 10.21 39.75 10.21L39.75 10.50L41.61 10.50ZM38.37 8.99C37.49 8.99 37.23 8.40 37.23 6.97C37.23 5.56 37.66 4.96 38.36 4.96C38.96 4.96 39.73 5.10 39.73 5.10L39.73 8.78C39.73 8.78 39.03 8.99 38.37 8.99ZM46.30 9.02C45.29 9.02 44.90 8.64 44.88 7.80L49 7.80L49.14 6.50C49.14 4.38 48.15 3.33 46.09 3.33C44.04 3.33 42.99 4.61 42.99 7.10C42.99 9.62 43.89 10.67 46.00 10.67C47.31 10.67 48.92 10.28 48.92 10.28L48.89 8.89C48.89 8.89 47.45 9.02 46.30 9.02ZM44.87 6.37C44.88 5.31 45.19 4.87 46.09 4.87C46.97 4.87 47.29 5.24 47.29 6.37ZM55.85 5.68C55.85 4.05 55.12 3.33 53.30 3.33C51.95 3.33 50.46 3.74 50.46 3.74L50.51 5.04C50.51 5.04 52.22 4.93 53.14 4.93C53.70 4.93 53.97 5.08 53.97 5.68L53.97 6.12L52.47 6.23C50.93 6.34 50.02 6.79 50.02 8.37C50.02 9.86 50.72 10.67 52.19 10.67C53.24 10.67 54.25 10.18 54.25 10.18C54.84 10.57 55.31 10.67 56.25 10.67L56.31 9.25C55.93 9.18 55.87 9.02 55.85 8.60ZM53.97 7.42L53.97 8.92C53.97 8.92 53.20 9.14 52.60 9.14C52.09 9.14 51.91 8.81 51.91 8.32C51.91 7.81 52.21 7.57 52.70 7.53ZM57.72 10.50L59.60 10.50L59.60 0.70L57.72 0.70ZM66.47 3.70C66.47 3.70 64.76 3.35 63.76 3.35C62.29 3.35 61.05 4.00 61.05 5.63C61.05 7.17 61.85 7.53 63.36 7.78C64.65 7.99 64.81 8.13 64.81 8.44C64.81 8.81 64.57 8.99 63.67 8.99C62.96 8.99 61.22 8.76 61.22 8.76L61.17 10.33C61.17 10.33 62.82 10.67 63.85 10.67C65.60 10.67 66.67 10.04 66.67 8.40C66.67 6.99 66.09 6.51 64.47 6.22C63.18 5.98 62.92 5.91 62.92 5.59C62.92 5.21 63.08 5.03 63.90 5.03C64.71 5.03 66.44 5.25 66.44 5.25Z"></path></g><g data-v-423bf9ae="" id="519c26ba-1dbd-4687-aaf3-0478deaf78f2" transform="matrix(1.0868111848831177,0,0,1.0868111848831177,-13.255263328552246,-0.23894432187080383)" stroke="none" fill="#E87967"><g clip-rule="evenodd"><path d="m12.983 10.59 17.018 88.223-5.872-59.049 29.021-1.892-.054-9.883L64.549 1 53.622 18.977z"></path><path d="m59.389 54.548 5.16-53.541-8.74 39.716-19.612 1.045 1.57 20.462-7.766 36.583 12.057-39.899z"></path><path d="m62.8 67.182.549-10.453-15.979 3.755-.032 11.797-17.337 26.532 21.68-27.616zM65.711 62.394l14.841-4.731 1.509-12.532-15.899 2.095zM72.07 44.502l10.988-1.417 1.581-10.278-8.079-.373L64.549 1l8.43 30.967z"></path><path d="m87.413 31.294 1.256-9.506-9.544-2.694L64.549 1l14.483 22.437-.422 7z"></path></g></g><g data-v-423bf9ae="" id="0791ce83-98c0-4d74-8030-59e2e00b9b2b" fill="#FFFFFF" transform="matrix(1.5684682130813599,0,0,1.5684682130813599,101.87995910644531,58.902076721191406)"><path d="M0.24 10.50L2.17 10.50L2.55 8.78L5.88 8.78L6.26 10.50L8.19 10.50L6.05 0.98L2.38 0.98ZM3.88 2.58L4.55 2.58L5.52 7.10L2.91 7.10ZM9.46 10.50L11.40 10.50L11.40 0.98L9.46 0.98ZM13.22 7.63L17.36 7.63L17.36 5.92L13.22 5.92ZM24.96 0.70L23.09 0.70L23.09 3.53C23.09 3.53 22.09 3.33 21.57 3.33C19.67 3.33 18.68 4.41 18.68 6.97C18.68 9.44 19.29 10.67 21.41 10.67C22.12 10.67 23.10 10.21 23.10 10.21L23.10 10.50L24.96 10.50ZM21.73 8.99C20.85 8.99 20.58 8.40 20.58 6.97C20.58 5.56 21.01 4.96 21.71 4.96C22.32 4.96 23.09 5.10 23.09 5.10L23.09 8.78C23.09 8.78 22.39 8.99 21.73 8.99ZM26.70 10.50L28.57 10.50L28.57 5.81C28.57 5.81 29.57 5.46 30.80 5.22L30.80 3.33C29.74 3.54 28.56 4.24 28.56 4.24L28.56 3.50L26.70 3.50ZM31.91 10.50L33.78 10.50L33.78 3.50L31.91 3.50ZM31.91 2.60L33.78 2.60L33.78 0.70L31.91 0.70ZM34.86 3.50L36.54 10.50L39.73 10.50L41.41 3.50L39.51 3.50L38.33 8.90L37.94 8.90L36.82 3.50ZM45.35 9.02C44.34 9.02 43.95 8.64 43.93 7.80L48.05 7.80L48.19 6.50C48.19 4.38 47.19 3.33 45.14 3.33C43.09 3.33 42.04 4.61 42.04 7.10C42.04 9.62 42.94 10.67 45.05 10.67C46.35 10.67 47.96 10.28 47.96 10.28L47.94 8.89C47.94 8.89 46.49 9.02 45.35 9.02ZM43.92 6.37C43.93 5.31 44.24 4.87 45.14 4.87C46.02 4.87 46.34 5.24 46.34 6.37ZM51.41 10.50L51.41 5.26C51.41 5.26 52.02 5.01 52.68 5.01C53.59 5.01 53.73 5.70 53.73 6.76L53.73 10.50L55.61 10.50L55.61 6.71C55.61 4.56 55.10 3.33 53.14 3.33C52.35 3.33 51.39 3.89 51.39 3.89L51.39 3.50L49.53 3.50L49.53 10.50ZM66.30 0.70L64.43 0.70L64.43 3.53C64.43 3.53 63.43 3.33 62.92 3.33C61.01 3.33 60.02 4.41 60.02 6.97C60.02 9.44 60.63 10.67 62.75 10.67C63.46 10.67 64.44 10.21 64.44 10.21L64.44 10.50L66.30 10.50ZM63.07 8.99C62.19 8.99 61.92 8.40 61.92 6.97C61.92 5.56 62.36 4.96 63.06 4.96C63.66 4.96 64.43 5.10 64.43 5.10L64.43 8.78C64.43 8.78 63.73 8.99 63.07 8.99ZM70.99 9.02C69.99 9.02 69.59 8.64 69.58 7.80L73.70 7.80L73.84 6.50C73.84 4.38 72.84 3.33 70.78 3.33C68.74 3.33 67.69 4.61 67.69 7.10C67.69 9.62 68.59 10.67 70.70 10.67C72.00 10.67 73.61 10.28 73.61 10.28L73.58 8.89C73.58 8.89 72.14 9.02 70.99 9.02ZM69.57 6.37C69.58 5.31 69.89 4.87 70.78 4.87C71.67 4.87 71.99 5.24 71.99 6.37ZM80.54 5.68C80.54 4.05 79.81 3.33 77.99 3.33C76.65 3.33 75.15 3.74 75.15 3.74L75.21 5.04C75.21 5.04 76.92 4.93 77.84 4.93C78.40 4.93 78.67 5.08 78.67 5.68L78.67 6.12L77.17 6.23C75.63 6.34 74.72 6.79 74.72 8.37C74.72 9.86 75.42 10.67 76.89 10.67C77.94 10.67 78.95 10.18 78.95 10.18C79.53 10.57 80.01 10.67 80.95 10.67L81.00 9.25C80.63 9.18 80.57 9.02 80.54 8.60ZM78.67 7.42L78.67 8.92C78.67 8.92 77.90 9.14 77.29 9.14C76.79 9.14 76.61 8.81 76.61 8.32C76.61 7.81 76.90 7.57 77.39 7.53ZM82.42 10.50L84.29 10.50L84.29 0.70L82.42 0.70ZM89.19 10.50L91.07 10.50L91.07 3.50L89.19 3.50ZM89.19 2.60L91.07 2.60L91.07 0.70L89.19 0.70ZM94.68 10.50L94.68 5.26C94.68 5.26 95.30 5.01 95.96 5.01C96.87 5.01 97.01 5.70 97.01 6.76L97.01 10.50L98.88 10.50L98.88 6.71C98.88 4.56 98.38 3.33 96.42 3.33C95.62 3.33 94.67 3.89 94.67 3.89L94.67 3.50L92.81 3.50L92.81 10.50ZM104.43 5.10L104.43 3.50L102.70 3.50L102.70 1.55L100.83 1.55L100.83 3.50L100.00 3.50L100.00 5.10L100.83 5.10L100.83 8.01C100.83 10.02 101.32 10.67 103.01 10.67C103.50 10.67 104.44 10.46 104.44 10.46L104.36 8.96C104.36 8.96 103.68 8.99 103.29 8.99C102.70 8.99 102.70 8.67 102.70 7.97L102.70 5.10ZM108.60 9.02C107.59 9.02 107.20 8.64 107.18 7.80L111.30 7.80L111.44 6.50C111.44 4.38 110.45 3.33 108.39 3.33C106.34 3.33 105.29 4.61 105.29 7.10C105.29 9.62 106.19 10.67 108.30 10.67C109.61 10.67 111.22 10.28 111.22 10.28L111.19 8.89C111.19 8.89 109.75 9.02 108.60 9.02ZM107.17 6.37C107.18 5.31 107.49 4.87 108.39 4.87C109.27 4.87 109.59 5.24 109.59 6.37ZM112.87 10.50L114.74 10.50L114.74 0.70L112.87 0.70ZM116.65 10.50L118.52 10.50L118.52 0.70L116.65 0.70ZM120.34 10.50L122.22 10.50L122.22 3.50L120.34 3.50ZM120.34 2.60L122.22 2.60L122.22 0.70L120.34 0.70ZM126.98 13.72C128.79 13.72 130.30 13.08 130.30 11.37C130.30 9.80 129.63 9.27 127.25 9.25C126.06 9.24 125.89 9.16 125.89 8.79C125.89 8.61 126.03 8.25 126.03 8.25C126.15 8.27 126.45 8.30 126.60 8.30C128.52 8.30 129.56 7.80 129.56 5.84C129.56 5.43 129.37 5.08 129.25 4.89L130.30 4.97L130.30 3.47L128.04 3.54C128.04 3.54 127.25 3.36 126.63 3.36C124.99 3.36 123.69 4.03 123.69 5.84C123.69 7.06 124.15 7.57 124.64 7.92C124.64 7.92 124.10 8.69 124.10 9.04C124.10 9.48 124.31 9.90 124.61 10.11C123.91 10.65 123.61 11.13 123.61 11.77C123.61 13.34 124.94 13.72 126.98 13.72ZM127.09 10.88C128.13 10.89 128.41 10.95 128.41 11.48C128.41 11.98 127.90 12.18 126.99 12.18C125.94 12.18 125.45 11.98 125.45 11.58C125.45 11.23 125.59 11.02 125.83 10.78C125.83 10.78 126.70 10.88 127.09 10.88ZM126.64 6.87C125.89 6.87 125.57 6.50 125.57 5.84C125.57 5.18 125.89 4.82 126.64 4.82C127.40 4.82 127.71 5.18 127.71 5.84C127.71 6.50 127.40 6.87 126.64 6.87ZM134.39 9.02C133.38 9.02 132.99 8.64 132.97 7.80L137.09 7.80L137.23 6.50C137.23 4.38 136.23 3.33 134.18 3.33C132.13 3.33 131.08 4.61 131.08 7.10C131.08 9.62 131.98 10.67 134.09 10.67C135.39 10.67 137.00 10.28 137.00 10.28L136.98 8.89C136.98 8.89 135.53 9.02 134.39 9.02ZM132.96 6.37C132.97 5.31 133.28 4.87 134.18 4.87C135.06 4.87 135.38 5.24 135.38 6.37ZM140.45 10.50L140.45 5.26C140.45 5.26 141.06 5.01 141.72 5.01C142.63 5.01 142.77 5.70 142.77 6.76L142.77 10.50L144.65 10.50L144.65 6.71C144.65 4.56 144.14 3.33 142.18 3.33C141.39 3.33 140.43 3.89 140.43 3.89L140.43 3.50L138.57 3.50L138.57 10.50ZM148.93 3.33C146.85 3.33 145.98 4.45 145.98 6.93C145.98 9.56 146.80 10.67 148.89 10.67C149.67 10.67 151.17 10.37 151.17 10.37L151.12 8.88C151.12 8.88 150.02 8.99 149.49 8.99C148.15 8.99 147.88 8.50 147.88 6.93C147.88 5.53 148.13 5.01 149.48 5.01C150.01 5.01 151.12 5.12 151.12 5.12L151.17 3.64C151.17 3.64 149.74 3.33 148.93 3.33ZM155.46 9.02C154.45 9.02 154.06 8.64 154.04 7.80L158.16 7.80L158.30 6.50C158.30 4.38 157.30 3.33 155.25 3.33C153.20 3.33 152.15 4.61 152.15 7.10C152.15 9.62 153.05 10.67 155.16 10.67C156.46 10.67 158.07 10.28 158.07 10.28L158.05 8.89C158.05 8.89 156.60 9.02 155.46 9.02ZM154.03 6.37C154.04 5.31 154.35 4.87 155.25 4.87C156.13 4.87 156.45 5.24 156.45 6.37Z"></path></g></svg>