<svg data-v-423bf9ae="" xmlns="http://www.w3.org/2000/svg" viewBox="0 0 309.89009389874496 60" class="font"><g data-v-423bf9ae="" id="10887ddc-5d1b-4e98-b415-ede6a0dd3d22" fill="black" transform="matrix(4.70957612991333,0,0,4.70957612991333,-4.09733247756958,-3.2967019081115723)"><path d="M0.87 13.44L2.74 13.44L2.74 10.56C2.74 10.56 3.39 10.67 3.91 10.67C6.05 10.67 7.08 9.93 7.08 6.94C7.08 4.34 6.17 3.33 4.33 3.33C3.64 3.33 2.73 3.88 2.73 3.88L2.73 3.50L0.87 3.50ZM3.96 5.01C4.70 5.01 5.18 5.53 5.18 6.94C5.18 8.43 4.89 9.04 3.77 9.04C3.37 9.04 2.74 8.96 2.74 8.96L2.74 5.29C2.74 5.29 3.39 5.01 3.96 5.01ZM8.48 10.50L10.36 10.50L10.36 5.81C10.36 5.81 11.35 5.46 12.59 5.22L12.59 3.33C11.52 3.54 10.35 4.24 10.35 4.24L10.35 3.50L8.48 3.50ZM13.69 10.50L15.57 10.50L15.57 3.50L13.69 3.50ZM13.69 2.60L15.57 2.60L15.57 0.70L13.69 0.70ZM22.36 3.70C22.36 3.70 20.65 3.35 19.64 3.35C18.17 3.35 16.94 4.00 16.94 5.63C16.94 7.17 17.74 7.53 19.25 7.78C20.54 7.99 20.69 8.13 20.69 8.44C20.69 8.81 20.45 8.99 19.56 8.99C18.84 8.99 17.11 8.76 17.11 8.76L17.05 10.33C17.05 10.33 18.70 10.67 19.74 10.67C21.49 10.67 22.55 10.04 22.55 8.40C22.55 6.99 21.98 6.51 20.36 6.22C19.07 5.98 18.80 5.91 18.80 5.59C18.80 5.21 18.97 5.03 19.78 5.03C20.59 5.03 22.33 5.25 22.33 5.25ZM25.79 10.50L25.79 5.26C25.79 5.26 26.42 5.01 27.03 5.01C27.90 5.01 28.01 5.64 28.01 6.90L28.01 10.50L29.89 10.50L29.89 6.87C29.89 6.33 29.83 5.28 29.83 5.28C29.83 5.28 30.58 5.01 31.14 5.01C31.98 5.01 32.12 5.70 32.12 6.76L32.12 10.50L33.99 10.50L33.99 6.71C33.99 4.45 33.43 3.33 31.53 3.33C30.46 3.33 29.18 3.99 29.18 3.99C28.76 3.54 28.21 3.33 27.43 3.33C26.74 3.33 25.77 3.89 25.77 3.89L25.77 3.50L23.91 3.50L23.91 10.50ZM41.61 0.70L39.73 0.70L39.73 3.53C39.73 3.53 38.74 3.33 38.22 3.33C36.32 3.33 35.32 4.41 35.32 6.97C35.32 9.44 35.94 10.67 38.05 10.67C38.77 10.67 39.75 10.21 39.75 10.21L39.75 10.50L41.61 10.50ZM38.37 8.99C37.49 8.99 37.23 8.40 37.23 6.97C37.23 5.56 37.66 4.96 38.36 4.96C38.96 4.96 39.73 5.10 39.73 5.10L39.73 8.78C39.73 8.78 39.03 8.99 38.37 8.99ZM46.30 9.02C45.29 9.02 44.90 8.64 44.88 7.80L49 7.80L49.14 6.50C49.14 4.38 48.15 3.33 46.09 3.33C44.04 3.33 42.99 4.61 42.99 7.10C42.99 9.62 43.89 10.67 46.00 10.67C47.31 10.67 48.92 10.28 48.92 10.28L48.89 8.89C48.89 8.89 47.45 9.02 46.30 9.02ZM44.87 6.37C44.88 5.31 45.19 4.87 46.09 4.87C46.97 4.87 47.29 5.24 47.29 6.37ZM55.85 5.68C55.85 4.05 55.12 3.33 53.30 3.33C51.95 3.33 50.46 3.74 50.46 3.74L50.51 5.04C50.51 5.04 52.22 4.93 53.14 4.93C53.70 4.93 53.97 5.08 53.97 5.68L53.97 6.12L52.47 6.23C50.93 6.34 50.02 6.79 50.02 8.37C50.02 9.86 50.72 10.67 52.19 10.67C53.24 10.67 54.25 10.18 54.25 10.18C54.84 10.57 55.31 10.67 56.25 10.67L56.31 9.25C55.93 9.18 55.87 9.02 55.85 8.60ZM53.97 7.42L53.97 8.92C53.97 8.92 53.20 9.14 52.60 9.14C52.09 9.14 51.91 8.81 51.91 8.32C51.91 7.81 52.21 7.57 52.70 7.53ZM57.72 10.50L59.60 10.50L59.60 0.70L57.72 0.70ZM66.47 3.70C66.47 3.70 64.76 3.35 63.76 3.35C62.29 3.35 61.05 4.00 61.05 5.63C61.05 7.17 61.85 7.53 63.36 7.78C64.65 7.99 64.81 8.13 64.81 8.44C64.81 8.81 64.57 8.99 63.67 8.99C62.96 8.99 61.22 8.76 61.22 8.76L61.17 10.33C61.17 10.33 62.82 10.67 63.85 10.67C65.60 10.67 66.67 10.04 66.67 8.40C66.67 6.99 66.09 6.51 64.47 6.22C63.18 5.98 62.92 5.91 62.92 5.59C62.92 5.21 63.08 5.03 63.90 5.03C64.71 5.03 66.44 5.25 66.44 5.25Z"></path></g></svg>